<?xml version="1.0" encoding="utf-8"?>
<!-- Generator: Adobe Illustrator 21.1.0, SVG Export Plug-In . SVG Version: 6.00 Build 0)  -->
<svg version="1.1" id="Layer_1" xmlns="http://www.w3.org/2000/svg" xmlns:xlink="http://www.w3.org/1999/xlink" x="0px" y="0px"
	 viewBox="0 0 934 934" style="enable-background:new 0 0 934 934;" xml:space="preserve">
<style type="text/css">
	.st0{fill:#FBD6DB;}
	.st1{fill:#CE0F13;}
</style>
<ellipse id="Color_2" transform="matrix(1 -8.211266e-03 8.211266e-03 1 -3.8189 3.8957)" class="st0" cx="472.5" cy="467" rx="409.8" ry="409.8"/>
<g id="Color_1">
	<g>
		<g>
			<path class="st1" d="M628.1,244.3c-4.8,9.2-10.9,20.9-10.5,31.7c-13,4.1-25.6,9.2-37.4,13.9c-19.9,7.9-39.6,14.7-58.7,22.8
				c-0.6-1.1-1.2-2.2-1.9-3.3c-3.3-12.4-11.1-24.4-18.7-34.8c36.2-6,74.5-19.2,107.8-33.3c11-4.6,21.9-10.2,31.6-17
				C635.9,230.6,631.9,237.1,628.1,244.3z M645.2,200c-20.2,22.6-53.8,32.6-81.5,42c-11.4,3.9-23,7.4-34.3,11.6
				c2.2-13.8,0.8-27.8,6.4-41.6c3.9-9.5,9.8-19.8,15.3-28.9c10.3-8.2,16.5-19.8,14.6-35.5c-1.3-10.6-6.8-20.1-14.7-28.6
				C599.8,110.2,698,141.2,645.2,200z M488,66.6c16.1-4.9,34.2-4,50.6-1.6c13.2,2,25.4,8.1,36.6,14.9c11.4,7,18.1,15.1,23.8,25.1
				c-4.2-0.6-8.4-1-12.6-1.3c-13-1.1-34.5-1.9-46.6,5.2c-20.7-16.1-49.1-27-67.8-31.9c-3.7-1-7.5-1.5-11.3-2
				C469.4,71.2,480,69.1,488,66.6z M372.7,121c19.3-23.2,61.5-34.8,90.2-31.4c26,3.1,53.9,20.6,73.1,37.6
				c12.5,11.1,21.1,26.9,8.5,41.6c-10.1,11.7-29.3,15.2-43.8,16.4c-22.6,1.8-117.5-3.9-96.3-46.8c10.5-21.2,41.8-20.7,59.8-11.7
				c4.8,2.4,9.4,5.3,12.7,9.6c7.5,9.5-11.7,10.9-14.5,11c-9.4,0.4-25.3-2.1-34.4-4.8c-2.2-0.6-3.2,2.1-1.9,3.6
				c10.1,11.3,69.5,24.1,64.6-6.9c-4.6-28.5-45.2-34.1-68-29c-24.5,5.5-46.5,36.6-28.8,59.2c-6.6-0.1-13.2-1.8-19.3-4.5
				C354.9,155.9,362.4,133.3,372.7,121z M284.5,166.8c-2.7-18.2,11.6-34.9,25.1-44.9c15.7-11.6,33.2-12.8,50.9-6.5
				c-1.8,2.2-3.6,4.4-5.1,6.7c-22.1,32.6,9.8,61.1,41.7,60.4c3.1-0.1,6.3-0.9,9.2-1.9c21.6,14.8,53.1,17.1,77.3,19.2
				c14.2,1.2,32.8-0.4,48.7-6.3c-3,4.1-5.5,8.5-7.8,12.5c-8.5,14.9-10.1,35.1-5.3,51.7c-0.6,0.3-1.2,0.5-1.9,0.7
				c-7.9,3.3-15.1,5.3-20.9,10.6c-0.5-0.7-1-1.4-1.5-2c-14.8-19.7-36-36.4-56.2-50.4c-19.8-13.7-43.1-25.6-65.8-33.6
				c-13-4.6-25.9-8.9-37.8-16c-11.7-7-14.7-16.6-21.3-27.5c-0.4-0.7-1.3-0.2-1.2,0.5c3,16.7,7.5,26.4,21.5,37.1
				c19.2,14.7,45.8,20.6,66.9,32.6c23.5,13.4,44.5,27.6,64.6,45.8c-1.5-1.1-3.1-2.1-4.6-3.1c-31.1-20.2-70.3-28-105.4-38.2
				C330.6,206.7,289.1,198.1,284.5,166.8z M401.7,241.9c25.5,8.2,48.9,18.1,69.6,35.4c13.9,11.6,24.8,26.9,37.5,39.7
				c0.2,0.3,0.4,0.7,0.6,1c-15.3,7-30.1,15.2-44.2,25.9c-3.6,2.7-7,5.5-10.3,8.5c-7.6-21.6-27.5-41.7-45.5-53.2
				c-13.4-8.5-26.8-16.4-41.6-22.4c-1.8-0.7-3.7-1.4-5.7-1.9c-3-14.1-10.8-28.2-18-39.9c-2.8-4.5-6.2-8.7-9.8-12.5
				C356.6,230.1,380.5,235.1,401.7,241.9z M355.4,390.8c-36.4-9.3-71.2-6.2-102.6-30.6c-33.7-26.1-24.3-66.1,5.7-90.2
				c21.5-17.2,48.7-20,72.5-31.6c6.6,10.2,10.9,21.5,16,32.4c-11.1-3.3-21.2-8.1-23.7-21.1c-0.3-1.7-2.6-1.2-3.1,0.1
				c-8,22.3,17.4,31.1,36,37.8c0.1,0.1,0.2,0.3,0.3,0.4c1.2,1.7,3.1,2,4.7,1.4c1.9,0.7,3.7,1.4,5.3,2.1c17,7.5,34.8,18.4,47.8,31.7
				c6.8,6.9,13.6,13.2,19.6,20.8c4.3,5.4,6.9,12.4,10.2,18.7c-6,6.1-11.7,12.6-17.3,19.2c-8.9,10.6-12.3,20.4-12.8,32.9
				c-0.6,0-1.1,0.2-1.6,0.4c-3.4-2.6-7.6-4.5-12.2-7.1C386.2,400.2,370.9,394.8,355.4,390.8z M668.4,406
				c-25.3,17.2-56.1,24.9-84.7,34.7c-32.8,11.2-66.1,19.7-100.9,14.9c-15.3-2.1-63.4-14.5-63.3-36c0-0.6-0.1-1.1-0.3-1.6
				c5-26.7,38.6-51.4,58.4-65.5c14.1-10,29.1-17.5,44.6-24c1.9,0.6,4-0.2,4.7-1.9c13.2-5.3,26.7-10,40.3-14.8
				c29.8-10.6,59.3-26,91.5-27.1c31-1.1,56.9,16.7,57.7,49.1C717.1,364.4,691.7,390.2,668.4,406z"/>
		</g>
	</g>
	<g>
		<g>
			<path class="st1" d="M320.6,687.2c5-9.2,11.3-20.7,11-31.6c13.1-3.9,25.8-8.8,37.6-13.3c20-7.6,39.9-14.1,59.1-21.8
				c0.6,1.1,1.2,2.2,1.8,3.4c3.1,12.4,10.7,24.5,18.1,35.1c-36.3,5.4-74.8,17.9-108.3,31.5c-11,4.5-22,9.8-31.9,16.5
				C312.6,700.8,316.7,694.3,320.6,687.2z M302.8,731.2c20.6-22.2,54.3-31.7,82.2-40.7c11.5-3.7,23.1-7.1,34.5-11
				c-2.5,13.8-1.3,27.8-7.1,41.5c-4,9.4-10.2,19.6-15.8,28.6c-10.4,8-16.8,19.5-15.2,35.3c1.1,10.6,6.5,20.2,14.3,28.8
				C346.7,821.8,249.1,789.1,302.8,731.2z M457.8,867.1c-16.2,4.6-34.3,3.5-50.7,0.8c-13.2-2.2-25.3-8.5-36.4-15.5
				c-11.3-7.2-17.8-15.4-23.4-25.5c4.2,0.6,8.4,1.1,12.5,1.5c13,1.3,34.5,2.5,46.7-4.4c20.4,16.4,48.7,27.8,67.3,33
				c3.6,1,7.4,1.7,11.3,2.1C476.4,862.9,465.8,864.8,457.8,867.1z M573.9,814.7c-19.7,22.8-62,33.8-90.8,29.9
				c-25.9-3.5-53.6-21.4-72.4-38.8c-12.3-11.3-20.6-27.3-7.8-41.7c10.3-11.6,29.6-14.8,44-15.6c22.6-1.4,117.4,5.8,95.5,48.4
				c-10.9,21-42.1,20-60,10.7c-4.8-2.5-9.3-5.4-12.6-9.8c-7.3-9.7,11.8-10.7,14.6-10.8c9.4-0.2,25.3,2.5,34.3,5.4
				c2.2,0.7,3.3-2.1,2-3.5c-9.9-11.5-69.1-25.2-64.7,5.8c4.1,28.6,44.7,34.9,67.5,30.2c24.5-5.1,47.1-35.9,29.7-58.7
				c6.6,0.2,13.1,2,19.3,4.8C592.3,780,584.4,802.5,573.9,814.7z M662.8,770.3c2.4,18.3-12.2,34.7-25.9,44.5
				c-15.9,11.3-33.4,12.3-51,5.7c1.9-2.1,3.6-4.3,5.2-6.6c22.6-32.2-8.8-61.2-40.7-61c-3.1,0-6.3,0.8-9.3,1.8
				c-21.3-15.1-52.8-18-77-20.5c-14.2-1.5-32.8-0.1-48.8,5.5c3-4.1,5.6-8.5,8-12.4c8.8-14.8,10.7-34.9,6.2-51.6
				c0.6-0.2,1.2-0.4,1.9-0.7c8-3.2,15.2-5.1,21-10.2c0.5,0.7,1,1.4,1.5,2.1c14.5,20,35.4,37,55.3,51.3c19.5,14,42.7,26.3,65.3,34.7
				c13,4.8,25.7,9.3,37.6,16.6c11.6,7.2,14.4,16.9,20.9,27.8c0.4,0.7,1.3,0.2,1.2-0.5c-2.7-16.8-7.1-26.5-20.9-37.5
				c-18.9-15-45.5-21.3-66.4-33.7c-23.3-13.8-44.1-28.4-63.9-46.8c1.5,1.1,3,2.1,4.5,3.1c30.8,20.7,69.8,29.1,104.7,39.9
				C617.4,729.6,658.8,738.9,662.8,770.3z M546.9,693.3c-25.3-8.6-48.6-18.9-69-36.5c-13.7-11.8-24.4-27.3-36.8-40.4
				c-0.2-0.3-0.4-0.7-0.5-1c15.4-6.8,30.4-14.7,44.6-25.1c3.6-2.6,7.1-5.4,10.4-8.3c7.3,21.7,26.8,42.2,44.6,53.9
				c13.2,8.7,26.5,16.8,41.2,23c1.8,0.8,3.7,1.4,5.7,2c2.8,14.2,10.3,28.4,17.3,40.2c2.7,4.6,6,8.8,9.6,12.7
				C591.8,705.8,568,700.4,546.9,693.3z M595.7,545.2c36.2,9.9,71.1,7.4,102.1,32.2c33.2,26.6,23.2,66.5-7.2,90.1
				c-21.8,16.9-49.1,19.2-73.1,30.5c-6.4-10.3-10.6-21.7-15.4-32.6c11.1,3.4,21.1,8.4,23.3,21.4c0.3,1.7,2.6,1.3,3.1,0
				c8.3-22.2-16.9-31.4-35.4-38.3c-0.1-0.1-0.2-0.3-0.3-0.5c-1.1-1.7-3.1-2.1-4.7-1.4c-1.9-0.7-3.7-1.5-5.3-2.2
				c-16.9-7.8-34.5-19-47.3-32.4c-6.6-7-13.4-13.4-19.3-21.1c-4.2-5.5-6.7-12.5-9.9-18.9c6.1-6,11.9-12.4,17.6-18.9
				c9.1-10.5,12.6-20.2,13.4-32.7c0.6,0,1.1-0.1,1.6-0.3c3.3,2.6,7.5,4.6,12.1,7.3C565.1,535.3,580.2,541,595.7,545.2z M283,524.8
				c25.6-16.8,56.5-24,85.3-33.3c33-10.6,66.4-18.6,101.1-13.3c15.3,2.3,63.2,15.5,62.7,37.1c0,0.6,0.1,1.1,0.3,1.6
				c-5.4,26.6-39.4,50.8-59.5,64.5c-14.2,9.8-29.4,17-44.9,23.2c-1.8-0.6-4,0.2-4.7,1.8c-13.3,5.1-26.9,9.6-40.6,14.2
				c-30,10.1-59.7,25-91.9,25.6c-31,0.6-56.7-17.7-56.9-50C233.6,565.7,259.4,540.3,283,524.8z"/>
		</g>
	</g>
</g>
</svg>
