<?xml version="1.0" encoding="utf-8"?>
<!-- Generator: Adobe Illustrator 21.1.0, SVG Export Plug-In . SVG Version: 6.00 Build 0)  -->
<svg version="1.1" id="Layer_1" xmlns="http://www.w3.org/2000/svg" xmlns:xlink="http://www.w3.org/1999/xlink" x="0px" y="0px"
	 viewBox="0 0 720 800" style="enable-background:new 0 0 720 800;" xml:space="preserve">
<style type="text/css">
	.st0{fill:#456B4D;}
	.st1{fill:#EA7E73;}
</style>
<g id="color_2">
	<g>
		<g>
			<path class="st0" d="M552,273.8c-8.7-29.7-72.6-71.3-80.2-72.7s-46.6,138.1-63.6,123.2c-17-14.9,37.4-108.3,41.7-122.3
				c7.6-24.8-16.7-57.8-25.9-66.7c-18.7-18.1-58.6-40-64.6-45.3s-62.7,46.2-68.1,64.5s5.1,56.5,12.1,62.7c7,6.1,30,57.3,11.5,48.1
				c-18.5-9.2-53-92.7-54.2-97.4c-1.2-4.6-44.1,48.5-56,64.1c-9.4,12.3-18.9,49.7,18.5,76.3c49.2,35,80.9,55.7,83.2,83.1
				c3.1,36.5-85.5-47.6-93.9-62.1c-8.5-14.5-24.2-24.9-34.8-43C167.3,268,71.4,454.5,130.8,469.6s94.8-5,110.2,13.8
				c15.3,18.8,2,34.7-21.2,22.1c-27.1-14.8-72.2-22.4-98.7-26.7c-23.2-3.8-27.4,114.3-7.5,131.9c20,17.6,98.7-21.5,120.8-20.4
				c22.1,1,40.7,27.8,17.7,27c-23.1-0.8-87.7-11.4-128,18.9c0,0,5,59.1,47.9,72c42.8,12.9,105.7-6.1,152.5-55.3
				c46.8-49.1,60.2-24,71.5-12.1c0,0,111,106.2,171.7,58c80.5-63.9,74.1-183.3,73.2-200.2c-1.6-33-24.1-31.9-24.1-31.9
				s-68.4,92.1-132.2,102.8c-18.1,3-19.4-15.9-8.5-22.3c10.9-6.3,74.6-26.4,95.4-56c20.7-29.6,42.1-94.4,39.3-113.2
				c-6.5-44.8-44-70.6-44-70.6s-43.2,53.1-61,83.4c-17.9,30.3-51.7,60.6-59.7,53.7c-6.4-5.5,0.9-15.9,17.8-36.4
				C473.3,396.6,561.1,304.7,552,273.8z"/>
		</g>
	</g>
</g>
<g id="Color_1">
	<g>
		<path class="st1" d="M333.8,336.3c27.7,10,55.3,25.3,73.2,48.7c0.5,0.7-22.7-70.3-91.3-55.5c-1.9,2.3-14.6,20.6-15.7,40.1
			C306.3,357.6,322.1,343.1,333.8,336.3z"/>
		<path class="st1" d="M443.6,367.7c7.4,9,13.7,23.9,18.1,33.2c2.1-2.5,4.2-6.5,4.7-9.1c-3.7-6.7-17.8-49.9-54.5-34.1
			c4.3,5.5,8.1,12,10.3,18.3C428.3,372.2,435.2,368.9,443.6,367.7z"/>
		<path class="st1" d="M362.2,435c-0.3,12.5,0,18.9-0.7,31.9c10,7.8,15.7,14.9,18.7,23.3c31-21.9,60.6-52.5,72.2-73.8
			c-1.4-4-11.1-31-13.2-35.3C414.8,390.6,389.2,411.8,362.2,435z"/>
		<path class="st1" d="M352.1,460.2c-1-8.5-1.6-19.7-0.8-30.2c-3.9-3.6-29.9-25.3-42.3-39.6c5.8-8.4,17.1-19,27.7-24.6
			c10,2.4,22.3,10.6,31.2,20.1c1.2,4.7-3,11-9.1,14.6c5.9-13.7-13.7-22.9-21.3-25.9c-5,2.6-9.9,8.2-11.9,12.1
			c13.4,12.2,29.5,24.9,37.9,31.8c9.6-8.7,23.5-18.2,37-25.3c-16-22.9-50.4-42.2-66.4-45.7c-21.1,18.4-36.7,40.9-46.4,61.1
			C301.3,422.5,335.8,449.5,352.1,460.2z"/>
		<path class="st1" d="M355.4,527.3c1.9-7.7,9.8-19.1,13.7-24.1c6.7-25.5-76.1-57.9-109.4-113.9c7.2,5.6,11.3,8.3,16.8,11.3
			c3.1-1.4,7.2-43.1,7.2-44c-8.2-1.4-16.4-0.2-25.3,2c-18.2,32.8-22.3,64.6-24.8,90C284.4,469.2,322.5,495.3,355.4,527.3z"/>
		<path class="st1" d="M508,390.6c0-2.7-18.7-44.1-75-44.6c15.2,4.3,33.8,10.8,48.4,46.1c-26,77.5-93.4,87.5-122.1,149.2
			c-0.8,3.5-2.4,33,10.2,61.1C381.3,525.3,507.8,494.3,508,390.6z"/>
		<path class="st1" d="M384,594.1c14.7-2.5,46.3-11,68.4-30.5c-1.4-15.2,2.2-28.5,5.1-50.4C412.1,540.5,391.6,576.4,384,594.1z"/>
		<path class="st1" d="M262.4,479c3.6,12.1,17.1,43.4,23.2,57.7c16.8,17.3,67.7,51,67.8,51.3c-7.4-21.6-9.8-45.4-10.3-57.4
			C313.6,503.9,283.8,488,262.4,479z"/>
		<path class="st1" d="M514.4,496.4c-14.6,18.3-43.5,24-43.5,24c-3.4,7.9-4.7,23.2-5.1,34.6c14-3.7,27.1-14.1,27.1-14.1
			c-5.4,7-27.4,28.2-27.4,28.2c-40.1,37.3-89.4,40.2-89.4,40.2l1,16.5C553.2,651.8,514.4,496.4,514.4,496.4z"/>
		<path class="st1" d="M251.2,524.5l20.3,6.3l-7-16.8c0,0-23.4-6.1-43.1-16.5c0,0-20.7,153.1,141.6,126.8l-8.9-22.5
			C354.1,601.6,288.4,564.2,251.2,524.5z"/>
	</g>
</g>
</svg>
