<?xml version="1.0" encoding="utf-8"?>
<!-- Generator: Adobe Illustrator 21.1.0, SVG Export Plug-In . SVG Version: 6.00 Build 0)  -->
<svg version="1.1" id="Layer_1" xmlns="http://www.w3.org/2000/svg" xmlns:xlink="http://www.w3.org/1999/xlink" x="0px" y="0px"
	 viewBox="0 0 934 934" style="enable-background:new 0 0 934 934;" xml:space="preserve">
<style type="text/css">
	.st0{fill:#D6C4CA;}
	.st1{fill:#307F22;}
	.st2{fill:#F276A0;}
</style>
<circle id="Color_3" class="st0" cx="467" cy="467" r="461.6"/>
<g id="Color_2">
	<path class="st1" d="M360.8,611.7c-7.2,10-14.5,20.1-21.9,30.1c-3-39-8.4-78.3-15.9-117.4c16.5-60.7,26.7-115.7,10.7-178.6
		c-8.5-33.4-61.4-157-85.9-165.9c-5.4-2-28,50.7-33.4,71.1c-9.1,34-6,72.8,0.6,106.9c7.7,40.3,23.7,73.4,42.4,109.5
		c8.3,15.9,19.5,31.9,31.1,45.6c4.5,5.3,19,22.8,20.1,23c4.2,23.5,8,47,10.2,70.7c1.7,18,0.9,37.3,5.6,54.9
		c-41.6,56.9-83.4,114.8-115.2,176.9c-5.1,10,10,18.9,15.1,8.8c31.3-61.2,170.1-254.1,195-286.7c3.1-4.1,54.4-66.6,68.7-80.5
		c22.9-22.2,47-43.2,70.8-64.5c0.2-0.1,134.9-38.7,172.9-95.4c34.1-50.8,37.9-193.1,36.6-191.9c-12.5-0.3-28.1,5.9-39.1,10.7
		c-17.1,7.5-27.7,14.3-46.6,26.3c-15.7,10-30.4,22-43.7,34.8c-26.8,25.9-49.2,59.1-62.6,93.6c-13.2,34-26.4,74-27.4,111
		c-1.5,1.4-2.9,2.8-4.4,4.3c-26.4,25.9-55.7,48.9-82.4,74.6 M449.4,42.2C449.5,42.2,449.5,42.2,449.4,42.2
		C449.5,42.2,449.5,42.2,449.4,42.2C449.5,42.3,449.5,42.2,449.4,42.2z M303.2,531.3C303.2,531.3,303.3,531.3,303.2,531.3
		c0.1,0.1,0.2,0.2,0.2,0.3C303.3,531.5,303.2,531.4,303.2,531.3z"/>
</g>
<g id="Color_1">
	<path class="st2" d="M689.8,360c-29.2-3.3-62.2,9.6-95.8,28.5c33.1-19.6,60.9-41.8,72.7-68.6c13.6-28.5,6-61.3-19.3-75.8
		c-25.1-14.8-57.7-5.2-75.7,20.9c-17.4,23.6-22.7,58.9-23.2,97.5c-0.4-38.6-5.6-73.9-22.9-97.6c-17.9-26.1-50.5-35.9-75.7-21.1
		c-25.3,14.4-32.9,47.2-19.4,75.8c11.7,26.7,39.3,49,72.2,68.6c-33.5-18.9-66.4-31.7-95.4-28.5c-31.6,2.5-56.2,26.1-56.1,54.8
		c-0.2,28.7,24.3,52.3,56,54.9c29,3.3,61.9-9.5,95.4-28.3c-33,19.6-60.5,41.7-72.3,68.4c-13.6,28.5-6,61.3,19.3,75.8
		c25.1,14.8,57.7,5.1,75.7-21c17.3-23.6,22.7-58.8,23.1-97.3c0.4,38.5,5.6,73.8,22.9,97.3c17.9,26.1,50.5,35.9,75.6,21.1
		c25.3-14.4,32.9-47.2,19.5-75.8c-11.7-26.7-39.3-49-72.3-68.6c33.5,18.9,66.4,31.8,95.5,28.6c31.7-2.5,56.3-26,56.1-54.8
		C746,386.2,721.5,362.5,689.8,360z M548.5,415.1c0-0.1,0-0.1,0-0.2C548.5,415,548.5,415.1,548.5,415.1c0,0.2,0,0.3,0,0.4
		c0-0.2,0-0.4,0-0.6l0,0c0,0,0,0,0,0.1c0,0,0,0,0-0.1l0,0l0,0C548.5,414.9,548.5,414.9,548.5,415.1c0-0.1,0-0.1,0-0.2
		c0,0.1,0,0.3,0,0.4C548.5,415.2,548.5,415.2,548.5,415.1C548.5,415.1,548.5,415,548.5,415.1C548.5,415,548.5,415,548.5,415.1z
		 M548.5,414.3c0-0.1,0-0.1,0-0.2c0,0.1,0,0.3,0,0.4l0,0C548.5,414.5,548.5,414.5,548.5,414.3c0,0.1,0,0.1,0,0.2l0,0l0,0
		C548.5,414.5,548.5,414.5,548.5,414.3c0,0.1,0,0.1,0,0.2C548.5,414.4,548.5,414.4,548.5,414.3z M549,414.3c0.3-0.2,0.6-0.4,0.9-0.5
		c-0.1,0.1-0.2,0.2-0.4,0.3C549.4,414.1,549.2,414.2,549,414.3z M548.5,414.6L548.5,414.6c0-0.2,0-0.3,0-0.5c0,0.1,0,0.1,0,0.2
		C548.5,414.4,548.5,414.5,548.5,414.6z M547.6,414.1c-0.1-0.1-0.2-0.1-0.3-0.2c0.2,0.1,0.5,0.3,0.7,0.4
		C547.9,414.2,547.7,414.2,547.6,414.1z M548.1,415c-0.3,0.2-0.7,0.4-1,0.6c0.1-0.1,0.3-0.2,0.4-0.3
		C547.7,415.2,547.9,415.1,548.1,415z M549.5,415.3c0.1,0.1,0.2,0.1,0.3,0.2c-0.2-0.1-0.4-0.3-0.6-0.4
		C549.2,415.2,549.4,415.2,549.5,415.3z M607,313.7c12,6.8,12.8,26.5,0.2,46.1c-9.2,15.2-25.8,30.1-45.4,45.1
		c-2.4,1.8-4.8,3.5-7.3,5.3c-2,1.4-4,2.9-5.9,4.3c3.2-31,7.8-59,18.3-78C577.6,315.7,595.1,306.9,607,313.7z M490.3,313.6
		c11.9-6.8,29.4,2.1,40.1,22.8c10.5,19,14.9,47.1,18.1,78.1c-2-1.4-3.9-2.9-5.9-4.3c-2.2-1.6-4.3-3.1-6.4-4.7
		c-20-15.3-36.8-30.4-46.1-45.8C477.5,340.1,478.3,320.4,490.3,313.6z M431.8,414.6c0-13.6,16.7-24.3,39.8-23.3
		c20.5,0.4,45,9.4,71.5,21c1.6,0.7,3.2,1.4,4.8,2.2c0.1,0.1,0.3,0.1,0.4,0.2l0,0c-0.2,0.1-0.3,0.2-0.5,0.3c-1.3,0.6-2.6,1.2-4,1.8
		c-26.9,11.7-51.6,20.8-72.3,21.2C448.4,438.9,431.8,428.2,431.8,414.6z M490.1,515.6c-12-6.8-12.8-26.5-0.2-46.1
		c9.2-15.2,25.8-30.1,45.5-45.1c2.4-1.7,4.8-3.5,7.2-5.3c2-1.4,4-2.9,5.9-4.3c-3.3,31-7.8,59-18.3,78
		C519.5,513.6,501.9,522.5,490.1,515.6z M606.8,515.8c-11.9,6.9-29.4-2.1-40.1-22.8c-10.4-19-14.9-47.1-18.1-78.1
		c2,1.4,3.9,2.9,5.9,4.3c2.2,1.6,4.4,3.2,6.5,4.8c19.9,15.2,36.8,30.3,46,45.8C619.6,489.3,618.8,509,606.8,515.8z M625.4,438.1
		c-20.6-0.4-45.1-9.4-71.8-21.1c-1.5-0.7-3-1.4-4.5-2c-0.1-0.1-0.3-0.1-0.4-0.2c0,0,0,0,0.1,0s0.2-0.1,0.3-0.1
		c1.7-0.8,3.4-1.5,5.1-2.3c26.5-11.5,50.9-20.3,71.3-20.8c23.2-1,39.8,9.7,39.8,23.4C665.2,428.5,648.6,439.1,625.4,438.1z"/>
</g>
</svg>
